Coordinates
version=1
nRows=8
nColumns=28
inDegrees=yes

Units are S.I. units (second, meters, Newtons, ...)
If the header above contains a line with 'inDegrees', this indicates whether rotational values are in degrees (yes) or radians (no).

endheader
time	pelvis_tilt	pelvis_list	pelvis_rotation	pelvis_tx	pelvis_ty	pelvis_tz	hip_flexion_r	hip_adduction_r	hip_rotation_r	knee_angle_r	knee_angle_r_ie	knee_angle_r_vv	ankle_angle_r	subtalar_angle_r	mtp_angle_r	hip_flexion_l	hip_adduction_l	hip_rotation_l	knee_angle_l	knee_angle_l_ie	knee_angle_l_vv	ankle_angle_l	subtalar_angle_l	mtp_angle_l	lumbar_extension	lumbar_bending	lumbar_rotation
      0.99000000	     -9.66463644	     -0.82476353	     -6.08729533	      0.28723127	      0.62030038	      0.41195976	     74.28471553	     -0.02675361	     -3.40463004	    -95.66872144	     -6.44408245	     -3.62410425	     42.66240022	      6.11030290	      0.00000000	     74.44565875	     -8.40968989	      0.22894423	    -95.69617947	      7.46742594	     -1.32608782	     47.13603654	     16.19785874	      0.00000000	    -31.25052119	      2.54764959	      8.39757865
      0.99500000	     -9.77917127	     -0.72712563	     -6.16609857	      0.28702896	      0.61438226	      0.41210760	     74.99369559	     -0.01434597	     -3.91695024	    -96.50686764	     -6.62469372	     -4.23444118	     43.35286613	      6.26811440	      0.00000000	     75.27593705	     -8.58246551	      0.49242045	    -96.81866900	      7.29021657	     -1.70040328	     47.50815449	     16.19414157	      0.00000000	    -31.62051288	      2.39409541	      8.30191226
      1.00000000	     -9.88658020	     -0.67053159	     -6.26329562	      0.28697854	      0.60875189	      0.41237944	     75.67546595	      0.00417605	     -3.53045780	    -97.43856981	     -6.75288217	     -3.85921967	     43.99647676	      6.51079221	      0.00000000	     76.07332740	     -8.79661506	      0.78562899	    -97.90872166	      7.12153296	     -2.05684158	     47.85223998	     16.20368383	      0.00000000	    -32.00921044	      2.24188018	      8.23234042
      1.00500000	     -9.97635433	     -0.67121417	     -6.34579072	      0.28707431	      0.60336333	      0.41275233	     76.33663024	      0.02416408	     -2.53749885	    -98.47597627	     -6.67953253	     -2.79918314	     44.55051512	      6.73747566	      0.00000000	     76.83799404	     -9.01881275	      1.07794818	    -98.97062804	      6.93218726	     -2.31748105	     48.20049666	     16.25463265	      0.00000000	    -32.43261876	      2.12536691	      8.16657591
      1.01000000	    -10.03611161	     -0.66093174	     -6.40488667	      0.28726754	      0.59817693	      0.41318855	     76.99644366	      0.04087760	     -1.12612900	    -99.58968174	     -6.57386153	     -1.33990521	     45.00031174	      6.93240892	      0.00000000	     77.54609149	     -9.19824066	      1.28426287	    -99.99039379	      6.75640857	     -2.46860521	     48.50825439	     16.28600524	      0.00000000	    -32.90312060	      1.97993711	      8.08623416
      1.01500000	    -10.07530044	     -0.59320015	     -6.43085020	      0.28746718	      0.59313285	      0.41364353	     77.67881932	      0.05573981	      0.30943415	   -100.73412695	     -6.43798915	      0.04873879	     45.33378109	      7.07637642	      0.00000000	     78.20253586	     -9.29493327	      1.30847971	   -100.93939510	      6.61456029	     -2.45318849	     48.78265222	     16.27140398	      0.00000000	    -33.40836522	      1.76331912	      7.92200977
      1.02000000	    -10.12036131	     -0.42588953	     -6.43955873	      0.28757277	      0.58816229	      0.41406598	     78.42076104	      0.08851549	      1.45770836	   -101.84811441	     -6.33468655	      0.98714391	     45.54969775	      7.13127126	      0.00000000	     78.83271682	     -9.29998196	      1.12029494	   -101.81103170	      6.52351091	     -2.29510478	     49.01616731	     16.20656962	      0.00000000	    -33.91929153	      1.45324385	      7.67599730
      1.02500000	    -10.20209683	     -0.15645451	     -6.44695878	      0.28751388	      0.58322147	      0.41447296	     79.24184276	      0.17228522	      2.14286504	   -102.88286593	     -6.35210575	      1.30246073	     45.67627665	      7.06757636	      0.00000000	     79.47743045	     -9.23485106	      0.74343917	   -102.60811582	      6.49292383	     -2.03000896	     49.19819086	     16.10180613	      0.00000000	    -34.39768442	      1.04160375	      7.36168881
